<?xml version="1.0" encoding="UTF-8" standalone="no"?>
<!-- Created with Inkscape (http://www.inkscape.org/) -->

<svg
   width="500"
   height="250"
   viewBox="0 0 132.29166 66.145834"
   version="1.1"
   id="svg1"
   sodipodi:docname="name.svg"
   inkscape:version="1.4 (e7c3feb100, 2024-10-09)"
   xmlns:inkscape="http://www.inkscape.org/namespaces/inkscape"
   xmlns:sodipodi="http://sodipodi.sourceforge.net/DTD/sodipodi-0.dtd"
   xmlns="http://www.w3.org/2000/svg"
   xmlns:svg="http://www.w3.org/2000/svg">
  <sodipodi:namedview
     id="namedview1"
     pagecolor="#ffffff"
     bordercolor="#000000"
     borderopacity="0.25"
     inkscape:showpageshadow="2"
     inkscape:pageopacity="0.0"
     inkscape:pagecheckerboard="0"
     inkscape:deskcolor="#d1d1d1"
     inkscape:document-units="mm"
     inkscape:zoom="3.4124973"
     inkscape:cx="251.13573"
     inkscape:cy="151.35543"
     inkscape:window-width="2516"
     inkscape:window-height="1362"
     inkscape:window-x="0"
     inkscape:window-y="0"
     inkscape:window-maximized="1"
     inkscape:current-layer="layer1" />
  <defs
     id="defs1">
    <inkscape:path-effect
       effect="offset"
       id="path-effect252"
       is_visible="true"
       lpeversion="1.3"
       linejoin_type="miter"
       unit="mm"
       offset="0"
       miter_limit="4"
       attempt_force_join="false"
       update_on_knot_move="true" />
    <rect
       x="47.729708"
       y="57.275649"
       width="348.9572"
       height="124.80435"
       id="rect1" />
    <inkscape:path-effect
       effect="offset"
       id="path-effect252-1"
       is_visible="true"
       lpeversion="1.3"
       linejoin_type="miter"
       unit="mm"
       offset="0"
       miter_limit="4"
       attempt_force_join="false"
       update_on_knot_move="true" />
  </defs>
  <g
     inkscape:label="a"
     inkscape:groupmode="layer"
     id="layer1"
     inkscape:path-effect="#path-effect252"
     transform="translate(-0.49345985,7.3756924)">
    <g
       inkscape:label="border"
       inkscape:groupmode="layer"
       id="layer1-7"
       transform="translate(5.1866393,14.175705)"
       style="fill:#aaeeff;stroke:#ff0000;stroke-opacity:1">
      <path
         class="border"
         id="path5-9-8"
         style="font-weight:900;font-size:42.6667px;font-family:'FOT-Yuruka Std';-inkscape-font-specification:'FOT-Yuruka Std Heavy';white-space:pre;fill:none;stroke:#ffffff;stroke-width:5;stroke-opacity:1"
         inkscape:label="border1"
         d="m 28.028204,-1.2245331 c -0.05362,-0.002 -0.110227,-1.24e-5 -0.171875,0.00977 l -5.164062,0.828125 -0.05078,0.0117188 c -0.359381,0.07634 -0.727319,0.36937025 -0.802735,0.51953125 -0.93798,1.74934 -2.539958,6.0097956 -3.873047,10.0624995 C 15.384564,7.4136481 12.722551,4.7255402 11.334845,3.6485137 11.298325,3.6185737 11.178925,3.599085 11.088751,3.574295 10.706449,3.229433 10.315888,2.874181 10.030158,2.65242 9.9002147,2.545881 9.3446157,2.4491289 8.9852357,2.5254669 L 8.9325013,2.5371856 3.9364076,3.8926544 C 3.4595606,4.0475904 3.3881473,4.4657521 3.4481263,4.7481231 L 8.6688295,24.404373 c 0.07634,0.359385 0.4408405,0.684899 0.8515625,0.597656 l 0.025391,-0.0059 0.2949219,-0.08984 0.1308593,0.494141 c 0.07634,0.359385 0.4408402,0.682946 0.8515622,0.595703 l 0.02539,-0.0039 4.841797,-1.458985 c 0.553841,-0.171274 0.798261,-0.785988 0.738281,-1.068359 l -0.0039,-0.02539 -3.472656,-10.664062 -0.03906,-0.179688 c -0.0017,-0.008 -4.31e-4,-0.01182 -0.002,-0.01953 1.117319,1.331781 2.844914,3.505596 4.126953,5.005859 0.199295,0.250034 0.503057,0.529095 0.902344,0.507813 0.127448,0.151636 0.28221,0.347697 0.402344,0.488281 0.219453,0.275324 0.55747,0.605962 1.019531,0.507813 l 2.623047,-0.664063 c 0.559289,-0.145627 0.76516,-0.565797 0.824218,-0.792969 0.47392,-1.64755 1.036115,-3.914415 1.482422,-5.617187 l 0.845703,8.332031 0.0059,0.02539 c 0.05998,0.282367 0.435665,0.791552 1.005859,0.697265 l 0.259766,-0.03516 0.03125,0.306641 0.0059,0.02539 c 0.05998,0.282367 0.435666,0.793506 1.00586,0.699219 l 5.292968,-0.722656 0.02539,-0.0059 c 0.38505,-0.08179 0.585824,-0.525787 0.535156,-0.890625 L 29.953986,0.3633575 29.942267,0.31257625 c -0.05248,-0.247073 -0.236021,-0.52879075 -0.611328,-0.54296875 -0.05362,-0.002 -0.110227,0.002 -0.171875,0.0117188 l -0.429688,0.0683594 -0.08008,-0.48046875 -0.0098,-0.0527344 c -0.05248,-0.247073 -0.236022,-0.5268376 -0.611329,-0.5410156 z m 31.191407,3.8359375 c -5.983154,0.048 -8.602374,4.0052161 -8.572266,7.7578126 0.02052,2.55763 1.278602,5.130996 3.744141,6.640625 1.502043,1.422613 3.69018,2.362967 6.572265,2.339844 l 0.314453,-0.0039 c 0.76102,-0.0061 1.100075,-0.375325 1.306641,-0.796875 0.386469,-0.895386 1.054839,-2.684847 1.052734,-2.947265 -0.0036,-0.446112 -0.450975,-0.67873 -0.818359,-0.675782 h -0.05273 c -0.164772,0.0249 -0.350152,0.02572 -0.519532,0.02734 0.04358,-0.149903 0.08635,-0.296359 0.08594,-0.347656 -0.0036,-0.446112 -0.450975,-0.678729 -0.818359,-0.675781 h -0.05273 c -0.183479,0.02773 -0.392483,0.02978 -0.576172,0.03125 -1.003245,0.0081 -1.809269,-0.198821 -2.472656,-0.519532 -0.597635,-0.713183 -0.893723,-1.579041 -0.900391,-2.410156 -0.01305,-1.6269981 1.027498,-2.7379396 2.28711,-2.7480466 0.104156,-8.32e-4 0.197434,0.012371 0.291015,0.025391 0.0017,0.01133 0.01555,0.033479 0.01563,0.042969 0.0029,0.3673881 -0.180912,0.4202418 -1.542968,0.7460938 -0.34051,0.08146 -0.549181,0.2152673 -0.546875,0.5039062 8.44e-4,0.1049671 0.512133,1.8064673 0.833984,2.6699223 0.10749,0.314064 0.240289,0.497507 0.660156,0.49414 0.142765,-0.0066 0.310961,-0.02726 0.464844,-0.03906 0.06106,0.179398 0.126021,0.397037 0.179688,0.541015 0.10749,0.314064 0.240289,0.495555 0.660156,0.492188 1.36416,-0.06343 3.303198,-0.367108 4.533203,-0.796875 0.575053,-0.200091 1.003023,-0.4657 1.314453,-0.78125 0.391056,2.015448 1.609707,3.974932 3.857422,5.425781 0.766439,0.696051 1.698506,1.321834 2.832031,1.835938 l 0.285156,0.128906 c 0.69309,0.314347 1.156855,0.121844 1.521485,-0.173828 0.727039,-0.649994 2.084964,-1.993427 2.193359,-2.232422 0.184274,-0.40629 -0.124388,-0.80723 -0.458984,-0.958985 l -0.04687,-0.02148 c -0.178141,-0.05197 -0.369812,-0.137012 -0.53711,-0.212891 -0.07903,-0.03584 -0.137489,-0.08176 -0.21289,-0.11914 -0.03204,-0.283802 -0.259657,-0.52896 -0.50586,-0.640625 l -0.04883,-0.02149 c -0.178141,-0.05197 -0.369811,-0.138964 -0.537109,-0.214843 -0.207765,-0.09423 -0.37366,-0.206115 -0.556641,-0.310547 -1.232306,-1.330739 -1.294672,-2.982975 -0.732422,-4.222656 0.592187,-1.3056878 1.756812,-1.9003791 2.810547,-1.6679691 0.163214,0.346987 0.180325,0.6698341 0.128907,0.7832031 -0.151756,0.334592 -0.34004,0.3061499 -1.712891,0.029297 -0.343215,-0.06921 -0.587795,-0.036326 -0.707031,0.2265625 -0.04336,0.0956 -0.294327,1.8546786 -0.365235,2.7734376 -0.03448,0.330152 0.0082,0.553132 0.390625,0.726562 0.274902,0.112152 0.588781,0.224161 0.910157,0.333985 -0.02028,0.292371 0.03941,0.499114 0.394531,0.660156 1.264453,0.515861 3.152511,1.054578 4.449219,1.181641 1.626865,0.16154 2.491616,-0.539292 2.990234,-1.638672 0.03575,-0.07883 0.09679,-0.234758 0.158203,-0.398438 0.244379,2.287584 1.479895,4.498591 3.695313,5.855469 1.489868,1.410046 3.655445,2.347656 6.507812,2.347656 h 0.314453 c 0.76104,0 1.10256,-0.367229 1.3125,-0.787109 0.39365,-0.892257 1.076172,-2.677026 1.076172,-2.939453 0,-0.446126 -0.447046,-0.683594 -0.814453,-0.683594 h -0.05273 c -0.166894,0.02385 -0.352755,0.02501 -0.523438,0.02539 0.04254,-0.143041 0.08594,-0.288068 0.08594,-0.337891 0,-0.446127 -0.445093,-0.681641 -0.8125,-0.681641 h -0.05273 c -0.1837,0.02625 -0.394425,0.02539 -0.578125,0.02539 -0.987759,0 -1.782195,-0.206709 -2.4375,-0.523438 -0.606604,-0.722539 -0.902344,-1.602384 -0.902344,-2.443359 0,-1.627052 1.048942,-2.728515 2.308594,-2.728516 0.09917,0 0.187858,0.01284 0.277344,0.02539 0.0025,0.01472 0.01953,0.04284 0.01953,0.05469 0,0.367399 -0.184201,0.419462 -1.548828,0.734375 -0.341158,0.07873 -0.550781,0.211331 -0.550781,0.5 0,0.104971 0.499539,1.80977 0.814453,2.675781 0.104973,0.314914 0.23637,0.498047 0.65625,0.498047 0.145594,-0.0056 0.317449,-0.02434 0.474609,-0.03516 0.05847,0.176505 0.120223,0.391163 0.171875,0.533204 0.104973,0.314914 0.23637,0.498047 0.65625,0.498046 1.364633,-0.05248 3.307603,-0.341834 4.541016,-0.761718 1.0745,-0.364237 1.635222,-0.958153 1.882812,-1.689453 l -1.947265,6.757812 c -0.0714,0.306714 0.08,0.584688 0.380859,0.681641 l 0.935547,0.267578 -0.01367,0.04492 c -0.0714,0.306714 0.08,0.584687 0.38086,0.68164 l 5.052737,1.445313 0.0508,0.01172 c 0.2556,0.05949 0.53815,-0.117451 0.59765,-0.373047 l 2.64649,-9.164063 c 0.18388,0.05356 0.35247,0.123625 0.51953,0.195313 0.58714,0.782612 0.79709,1.903768 0.43555,3.457031 l -0.20117,0.869141 c -0.96403,4.141752 2.04926,6.402634 2.94921,6.859375 0.69074,0.688387 1.35313,1.058604 1.5293,1.099609 0.23004,0.05354 0.50346,0.03562 0.80664,-0.109375 0,0 2.95295,-1.224272 2.96485,-1.275391 0.20865,-0.08616 0.31976,-0.221641 0.35546,-0.375 0.0654,-0.281154 -0.13029,-0.59627 -0.2539,-0.759765 -0.82188,-1.215182 -0.88589,-2.443666 -0.55274,-3.875 l 0.19532,-0.84375 c 0.84139,-3.614869 -0.69822,-6.789303 -3.65821,-8.685547 -1.26498,-1.1631465 -2.93705,-2.0287541 -4.89453,-2.4843751 -0.92014,-0.214173 -1.89113,-0.331831 -2.93555,-0.359375 l -2.82617,-0.8203125 -0.0508,-0.011719 c -0.0317,-0.0074 -0.0654,-0.011349 -0.0977,-0.011719 -0.22659,-0.002 -0.45364,0.1636719 -0.53321,0.4042968 l -1.755857,6.0917973 c 0.0537,-0.241488 0.08398,-0.493361 0.08398,-0.757813 0,-0.659251 -0.17612,-4.171876 -3.126953,-5.814453 -1.005313,-1.048232 -2.560425,-1.8476562 -4.97461,-1.8476563 -4.513332,0 -7.127374,2.2398599 -8.140625,4.9511719 C 83.406391,8.3627236 82.627255,6.7296574 80.549689,5.4864044 79.968568,4.9340824 79.233336,4.4179874 78.264533,3.9785919 76.731975,3.2835079 75.311815,2.980442 74.026251,2.980545 70.740922,2.980808 68.339568,4.9577157 67.22547,7.4141387 67.13895,7.6048957 67.064472,7.8007081 66.993048,7.9981231 66.610127,6.7629911 65.838937,5.3364739 64.239142,4.4473419 63.226514,3.3929584 61.655941,2.5918564 59.219611,2.6114044 Z m -19.802735,0.3125 c -5.195777,0.05502 -7.377094,4.6186227 -7.34375,7.7675776 0.02783,2.628335 1.514942,4.905184 3.689453,6.240235 1.516825,1.412491 3.609727,2.275733 5.855469,2.251953 1.338304,-0.01417 2.750376,-0.343441 4.107422,-1.066406 1.325128,1.219446 3.16728,1.619966 3.429688,1.617187 0.341138,-0.0036 0.600582,-0.242806 0.832031,-0.691406 l 1.59375,-3.193359 c 0.05135,-0.105522 0.07672,-0.183847 0.07617,-0.236329 -0.0028,-0.262412 -0.292837,-0.416493 -0.556641,-0.544921 -0.844443,-0.43721 -1.145436,-1.562241 -1.162109,-3.136719 -0.01834,-1.731926 0.325879,-4.0202625 0.667968,-6.4121095 l -0.002,-0.1308594 C 50.601076,5.0738541 50.41416,4.7347874 49.731329,4.6895294 l -0.447265,-0.035156 c 0.0064,-0.04485 0.01115,-0.083978 0.01758,-0.1289062 l -0.002,-0.1308594 C 49.296389,4.079713 49.109473,3.7406468 48.426642,3.6953887 l -4.542969,-0.3457031 -0.130859,0.00195 c -0.314895,0.0033 -0.551529,0.08418 -0.707031,0.2695313 -1.028134,-0.435264 -2.31684,-0.7111586 -3.628907,-0.6972656 z m 2.5625,5.8105468 c 0.16602,-0.0018 0.326636,0.021644 0.484375,0.052734 -0.03699,0.713745 -0.05743,1.3758714 -0.05078,2.0039064 0.0086,0.813481 0.07028,1.54903 0.15625,2.230469 -0.60077,0.268805 -1.177195,0.379488 -1.675781,0.384765 -0.366517,0.0039 -0.694884,-0.06127 -0.996094,-0.164062 -0.29054,-0.441346 -0.452971,-0.973185 -0.458984,-1.541016 -0.01417,-1.338307 0.887814,-2.9492908 2.541015,-2.9667968 z"
         inkscape:original-d="m 28.028098,-1.2245211 c -0.05362,-0.002 -0.110434,4.2e-5 -0.172082,0.00982 l -5.164026,0.82785701 -0.05064,0.011885 c -0.359381,0.07634 -0.727636,0.3691872 -0.803052,0.5193482 C 20.900318,1.8937291 19.298755,6.1546376 17.965666,10.207342 15.384526,7.4138826 12.722253,4.7255946 11.334547,3.6485681 c -0.03652,-0.02994 -0.155806,-0.04962 -0.24598,-0.07441 -0.382302,-0.344862 -0.77312,-0.700146 -1.05885,-0.921907 C 9.8997741,2.5457121 9.3441996,2.4493051 8.9848196,2.5256431 l -0.05271,0.01137 -4.9960772,1.355473 C 3.4591854,4.0474221 3.3877081,4.4658706 3.4476871,4.7482416 L 8.6685566,24.404405 c 0.07634,0.359385 0.440906,0.684623 0.851628,0.59738 l 0.02532,-0.0057 0.2950725,-0.08888 0.130741,0.492993 c 0.07634,0.359385 0.4409059,0.683072 0.8516279,0.595829 l 0.02532,-0.0041 4.841565,-1.458825 c 0.553841,-0.171274 0.798436,-0.785781 0.738456,-1.068152 l -0.0041,-0.02532 -3.472656,-10.664464 -0.03876,-0.179317 c -0.0017,-0.008 -5.78e-4,-0.01193 -0.0021,-0.01964 1.117319,1.331781 2.844841,3.505633 4.12688,5.005896 0.199295,0.250033 0.5035,0.52926 0.902787,0.507978 0.127448,0.151636 0.281908,0.347242 0.402042,0.487826 0.219453,0.275324 0.557516,0.606128 1.019577,0.507979 l 2.623095,-0.664042 c 0.559289,-0.145627 0.765181,-0.565546 0.824239,-0.792717 0.47392,-1.64755 1.036807,-3.915488 1.483114,-5.61826 l 0.84491,8.332823 0.0057,0.02532 c 0.05998,0.282367 0.435946,0.791919 1.00614,0.697632 l 0.259933,-0.03566 0.031,0.306958 0.0057,0.02532 c 0.05998,0.282367 0.435946,0.793469 1.00614,0.699182 l 5.2927,-0.722436 0.02532,-0.0062 c 0.38505,-0.08179 0.586035,-0.525547 0.535367,-0.890385 l -3.351753,-20.08044389 -0.01137,-0.050643 c -0.05248,-0.247073 -0.236025,-0.5289412 -0.611332,-0.5431192 v 5.16e-4 c -0.05362,-0.002 -0.110434,0.00165 -0.172082,0.011369 l -0.429432,0.06873 -0.0801,-0.480591 -0.0098,-0.05271 c -0.05248,-0.247073 -0.236025,-0.52687401 -0.611332,-0.54105201 z m 31.191378,3.8359412 c -5.983154,0.048 -8.602711,4.0050705 -8.572603,7.7576669 0.02052,2.55763 1.278418,5.131826 3.743957,6.641455 1.502043,1.422613 3.690641,2.361998 6.572726,2.338875 l 0.314192,-0.0036 c 0.76102,-0.0061 1.100331,-0.3753 1.306897,-0.79685 0.386469,-0.895386 1.054754,-2.685205 1.052649,-2.947623 -0.0036,-0.446112 -0.451171,-0.678359 -0.818555,-0.675411 h -0.05271 c -0.164772,0.0249 -0.349452,0.02629 -0.518832,0.02791 0.04358,-0.149903 0.08568,-0.297002 0.08527,-0.348299 -0.0036,-0.446112 -0.450654,-0.678875 -0.818038,-0.675927 h -0.05271 c -0.183479,0.02773 -0.392503,0.03005 -0.576192,0.03152 -1.003245,0.0081 -1.808813,-0.19812 -2.4722,-0.518831 -0.597635,-0.713183 -0.894569,-1.580108 -0.901237,-2.411223 -0.01305,-1.6269984 1.027587,-2.7375284 2.287199,-2.7476354 0.104156,-8.32e-4 0.197874,0.0123 0.291455,0.02532 0.0017,0.01133 0.01543,0.0334 0.0155,0.04289 0.0029,0.367388 -0.181003,0.419839 -1.543059,0.745691 -0.34051,0.08146 -0.549559,0.215723 -0.547253,0.504362 8.44e-4,0.104967 0.512206,1.8061504 0.834057,2.6696054 0.10749,0.314064 0.240558,0.497393 0.660425,0.494026 0.142765,-0.0066 0.311205,-0.02644 0.465088,-0.03824 0.06106,0.179398 0.12565,0.396557 0.179317,0.540535 0.10749,0.314064 0.240558,0.495327 0.660425,0.49196 1.36416,-0.06343 3.303052,-0.367084 4.533057,-0.796851 0.575053,-0.200091 1.003218,-0.464764 1.314648,-0.780314 0.391056,2.015448 1.609414,3.973626 3.857129,5.424475 0.766439,0.696051 1.698344,1.322476 2.831869,1.83658 l 0.285254,0.128674 c 0.69309,0.314347 1.156724,0.122039 1.521354,-0.173633 0.727039,-0.649994 2.085269,-1.993426 2.193664,-2.232421 0.184274,-0.40629 -0.12429,-0.807359 -0.458886,-0.959114 l -0.04703,-0.0217 c -0.178141,-0.05197 -0.36962,-0.137028 -0.536918,-0.212907 -0.07903,-0.03584 -0.136472,-0.08044 -0.211873,-0.117822 -0.03204,-0.283802 -0.260743,-0.530157 -0.506946,-0.641822 l -0.04909,-0.02119 c -0.178141,-0.05197 -0.36962,-0.139095 -0.536918,-0.214974 -0.207765,-0.09423 -0.373574,-0.205627 -0.556555,-0.310059 -1.232306,-1.330739 -1.295022,-2.983317 -0.732772,-4.222998 0.592187,-1.3056874 1.75798,-1.9005254 2.811715,-1.6681154 0.163214,0.346987 0.179575,0.670046 0.128157,0.783415 -0.151756,0.334592 -0.340223,0.305793 -1.713074,0.02894 -0.343215,-0.06921 -0.587697,-0.03603 -0.706933,0.226859 -0.04336,0.0956 -0.294444,1.8547154 -0.365352,2.7734744 -0.03448,0.330152 0.0082,0.553141 0.390673,0.726571 0.274902,0.112152 0.588646,0.224522 0.910022,0.334346 -0.02028,0.292371 0.03969,0.49835 0.394808,0.659392 1.264453,0.515861 3.152116,1.054777 4.448824,1.18184 1.626865,0.16154 2.491897,-0.53928 2.990515,-1.63866 0.03575,-0.07883 0.09723,-0.234228 0.158647,-0.397908 0.244379,2.287584 1.479964,4.497544 3.695382,5.854422 1.489868,1.410046 3.654729,2.348177 6.507096,2.348177 h 0.31471 c 0.76104,0 1.102641,-0.367152 1.312581,-0.787032 0.39365,-0.892257 1.075903,-2.676929 1.075903,-2.939356 0,-0.446126 -0.447013,-0.683678 -0.81442,-0.683678 h -0.05271 c -0.166894,0.02385 -0.352799,0.02443 -0.523482,0.02481 0.04254,-0.143041 0.08578,-0.287624 0.08578,-0.337447 0,-0.446127 -0.444946,-0.681613 -0.812353,-0.681613 h -0.05271 c -0.1837,0.02625 -0.394559,0.02532 -0.578259,0.02532 -0.987759,0 -1.781756,-0.206237 -2.437061,-0.522966 -0.606604,-0.72254 -0.902787,-1.602803 -0.902787,-2.443778 0,-1.627052 1.049251,-2.728516 2.308903,-2.728516 0.09917,0 0.188016,0.0138 0.277502,0.02635 0.0025,0.01472 0.01912,0.04189 0.01912,0.05374 0,0.367399 -0.184116,0.419409 -1.548743,0.734322 -0.341158,0.07873 -0.550871,0.211559 -0.550871,0.500228 0,0.104971 0.499507,1.809794 0.814421,2.675805 0.104973,0.314914 0.23641,0.497644 0.65629,0.497644 0.145594,-0.0056 0.31723,-0.0238 0.47439,-0.03462 0.05847,0.176505 0.120431,0.390743 0.172083,0.532784 0.104973,0.314914 0.23641,0.498161 0.65629,0.498161 1.364633,-0.05248 3.307398,-0.341827 4.540811,-0.761711 1.0745,-0.364237 1.6355,-0.959036 1.88309,-1.690336 l -1.94717,6.75876 c -0.0714,0.306714 0.08,0.584659 0.38086,0.681612 l 0.93482,0.267684 -0.0129,0.04496 c -0.0714,0.306714 0.08,0.58466 0.38086,0.681613 l 5.052401,1.444873 0.0512,0.01188 c 0.2556,0.05949 0.53788,-0.117508 0.59738,-0.373104 l 2.64635,-9.16378 c 0.18388,0.05356 0.35333,0.123132 0.52039,0.19482 0.58714,0.782612 0.79665,1.903889 0.43511,3.457152 l -0.20154,0.869198 c -0.96403,4.141752 2.05026,6.403305 2.95021,6.860046 0.69074,0.688387 1.35242,1.058153 1.52859,1.099158 0.23004,0.05354 0.50349,0.03544 0.80667,-0.109554 0,0 2.95278,-1.224256 2.96468,-1.275375 0.20865,-0.08616 0.31983,-0.221295 0.35553,-0.374654 0.0654,-0.281154 -0.13012,-0.596665 -0.25373,-0.76016 -0.82188,-1.215182 -0.88609,-2.443365 -0.55294,-3.874699 l 0.19534,-0.843876 c 0.84139,-3.614869 -0.69767,-6.789013 -3.65766,-8.685257 -1.26498,-1.1631464 -2.93783,-2.0289824 -4.89531,-2.4846034 -0.92014,-0.214173 -1.8908,-0.332124 -2.93522,-0.359668 l -2.82618,-0.820105 -0.0512,-0.01188 c -0.0317,-0.0074 -0.065,-0.011 -0.0972,-0.01137 h -5.1e-4 c -0.22659,-0.002 -0.45322,0.163484 -0.53279,0.404109 L 99.764779,13.3343 c 0.0537,-0.241488 0.0832,-0.493641 0.0832,-0.758093 0,-0.659251 -0.17559,-4.1720554 -3.126423,-5.8146324 -1.005313,-1.048232 -2.560705,-1.847433 -4.97489,-1.847433 -4.513332,0 -7.127855,2.240324 -8.141106,4.951636 -0.199938,-1.502587 -0.978578,-3.136325 -3.056144,-4.379578 -0.581121,-0.552322 -1.316329,-1.068523 -2.285132,-1.5079185 -1.532558,-0.695084 -2.952937,-0.997975 -4.238501,-0.997872 -3.285329,2.63e-4 -5.68652,1.9774155 -6.800618,4.4338385 -0.08652,0.190757 -0.16112,0.387045 -0.232544,0.58446 C 66.6097,6.7635756 65.838579,5.3361186 64.238784,4.4469866 63.226156,3.3926031 61.655782,2.5918911 59.219452,2.6114391 Z M 39.41655,2.9235461 c -5.195777,0.05502 -7.377081,4.6190465 -7.343737,7.7680019 0.02783,2.628335 1.515186,4.904878 3.689697,6.239929 1.516825,1.412491 3.609714,2.275838 5.855456,2.252058 1.338304,-0.01417 2.750197,-0.343636 4.107243,-1.066601 1.325128,1.219446 3.167357,1.620251 3.429765,1.617472 0.341138,-0.0036 0.600542,-0.242831 0.831991,-0.691431 l 1.593701,-3.193602 c 0.05135,-0.105522 0.07651,-0.183679 0.07596,-0.236161 -0.0028,-0.262413 -0.292751,-0.416242 -0.556555,-0.54467 -0.844443,-0.43721 -1.14553,-1.562281 -1.162203,-3.136759 -0.01834,-1.731926 0.326087,-4.0206824 0.668176,-6.4125294 l -0.0021,-0.130741 c -0.0033,-0.314894 -0.189984,-0.653924 -0.872815,-0.699182 l -0.447518,-0.03411 c 0.0064,-0.04485 0.01114,-0.08478 0.01757,-0.129708 l -0.0021,-0.131258 C 49.295781,4.0793601 49.109097,3.7403301 48.426266,3.6950721 l -4.542875,-0.345715 -0.130741,0.0021 c -0.314895,0.0033 -0.551949,0.0844 -0.707451,0.269751 -1.028134,-0.435264 -2.316652,-0.711008 -3.628719,-0.697115 z m 2.562635,5.8110155 c 0.16602,-0.0018 0.327502,0.02059 0.485241,0.05168 -0.03699,0.713745 -0.05833,1.3764944 -0.05168,2.0045294 0.0086,0.813481 0.07009,1.549433 0.156063,2.230872 -0.60077,0.268805 -1.177281,0.379195 -1.675867,0.384472 -0.366517,0.0039 -0.695112,-0.06102 -0.996322,-0.163814 -0.29054,-0.441346 -0.452357,-0.97316 -0.45837,-1.540991 -0.01417,-1.338307 0.88773,-2.9492384 2.540931,-2.9667444 z" />
    </g>
    <g
       id="g1"
       transform="translate(1.3034443,0.99513776)"
       style="fill:#aaeeff"
       inkscape:label="drop">
      <path
         style="font-weight:900;font-size:42.6667px;font-family:'FOT-Yuruka Std';-inkscape-font-specification:'FOT-Yuruka Std Heavy';white-space:pre;fill:#aaeeff;stroke-width:0.615065"
         d="m 107.24929,21.012675 c -0.22675,-0.0023 -0.45553,0.163491 -0.53516,0.404297 l -3.7832,13.128906 c -0.0714,0.306714 0.08,0.584687 0.38086,0.68164 l 5.05273,1.445313 0.0508,0.01172 c 0.2556,0.05949 0.53815,-0.117451 0.59765,-0.373047 l 2.64649,-9.164063 c 1.84204,0.536532 2.88248,1.964687 2.25781,4.648438 l -0.20117,0.86914 c -1.05896,4.549596 2.71571,6.855805 3.17578,6.962891 0.23004,0.05354 0.50346,0.03562 0.80664,-0.109375 0,0 2.95294,-1.224272 2.96484,-1.275391 0.20865,-0.08616 0.31977,-0.221641 0.35547,-0.375 0.0654,-0.281154 -0.13029,-0.59627 -0.2539,-0.759765 -0.82188,-1.215182 -0.88589,-2.443666 -0.55274,-3.875 l 0.19531,-0.84375 c 1.1363,-4.88187 -2.06141,-8.966136 -7.25,-10.173828 -0.92014,-0.214173 -1.88917,-0.333784 -2.93359,-0.361328 l -2.82813,-0.81836 -0.0508,-0.01172 c -0.0319,-0.0074 -0.0633,-0.01139 -0.0957,-0.01172 z"
         id="path5-9"
         class="n"
         inkscape:label="n"
         inkscape:original-d="m 120.40806,32.39011 c 1.1363,-4.88187 -2.06216,-8.967435 -7.25075,-10.175127 -0.92014,-0.214173 -1.88964,-0.332056 -2.93406,-0.3596 l -2.82697,-0.819671 -0.0511,-0.0119 c -0.2556,-0.05949 -0.53917,0.117002 -0.63017,0.392208 l -3.78371,13.130327 c -0.0714,0.306714 0.0795,0.584343 0.38031,0.681296 l 5.05241,1.445442 0.0511,0.0119 c 0.2556,0.05949 0.53917,-0.117001 0.59867,-0.372597 l 2.64521,-9.165076 c 1.84204,0.536532 2.88381,1.964562 2.25914,4.648313 l -0.20227,0.869024 c -1.05896,4.549596 2.71525,6.85613 3.17532,6.963216 0.23004,0.05354 0.50349,0.03636 0.80667,-0.108631 0,0 2.95279,-1.225749 2.96469,-1.276868 0.20865,-0.08616 0.32103,-0.221664 0.35673,-0.375023 0.0654,-0.281154 -0.13066,-0.596239 -0.25427,-0.759734 -0.82188,-1.215182 -0.88643,-2.4427 -0.55328,-3.874034 z" />
      <path
         style="font-weight:900;font-size:42.6667px;font-family:'FOT-Yuruka Std';-inkscape-font-specification:'FOT-Yuruka Std Heavy';white-space:pre;fill:#aaeeff;stroke-width:0.615065"
         d="m 96.942649,19.088847 c -5.983354,0 -8.634765,3.936736 -8.634765,7.689453 0,3.988902 2.992109,8.05664 8.949219,8.05664 h 0.314453 c 0.76104,0 1.10256,-0.367229 1.3125,-0.787109 0.39365,-0.892257 1.076172,-2.677026 1.076172,-2.939453 0,-0.446127 -0.447047,-0.683594 -0.814454,-0.683594 h -0.05273 c -0.1837,0.02625 -0.392472,0.02734 -0.576172,0.02734 -3.280356,0 -4.644531,-2.099654 -4.644531,-3.962891 0,-1.627052 1.048942,-2.728515 2.308594,-2.728515 1.102202,0 1.601562,0.839986 1.601562,1.076171 0,0.367399 -0.184201,0.419462 -1.548828,0.734375 -0.341158,0.07873 -0.550781,0.209377 -0.550781,0.498047 0,0.104971 0.497586,1.811724 0.8125,2.677735 0.104973,0.314914 0.23637,0.498047 0.65625,0.498047 1.364633,-0.05248 3.307606,-0.341835 4.541016,-0.761719 1.54833,-0.524856 2.04687,-1.521348 2.04687,-2.728516 0,-0.866011 -0.28866,-6.666015 -6.796871,-6.666015 z"
         id="path4-7"
         class="e3"
         inkscape:label="e3"
         inkscape:original-d="m 97.571645,34.834467 c 0.76104,0 1.10219,-0.367402 1.31213,-0.787282 0.39365,-0.892257 1.075957,-2.676766 1.075957,-2.939193 0,-0.446127 -0.44612,-0.682312 -0.813527,-0.682312 h -0.0525 c -0.1837,0.02625 -0.39364,0.02625 -0.57734,0.02625 -3.280356,0 -4.644975,-2.099422 -4.644975,-3.962659 0,-1.627052 1.049706,-2.729249 2.309358,-2.729249 1.102202,0 1.600817,0.839769 1.600817,1.075954 0,0.367399 -0.1837,0.419885 -1.548327,0.734798 -0.341158,0.07873 -0.551098,0.209942 -0.551098,0.498612 0,0.104971 0.498608,1.810752 0.813522,2.676763 0.104973,0.314914 0.23619,0.498613 0.65607,0.498613 1.364633,-0.05248 3.306588,-0.341156 4.539998,-0.76104 1.54833,-0.524856 2.04694,-1.522081 2.04694,-2.729249 0,-0.866011 -0.28867,-6.665664 -6.796878,-6.665664 -5.983354,0 -8.63387,3.936415 -8.63387,7.689132 0,3.988902 2.991674,8.056531 8.948784,8.056531 z" />
      <path
         style="font-weight:900;font-size:42.6667px;font-family:'FOT-Yuruka Std';-inkscape-font-specification:'FOT-Yuruka Std Heavy';white-space:pre;fill:#aaeeff;stroke-width:0.615065"
         d="m 79.219993,17.1533 c -3.285329,2.63e-4 -5.684729,1.979124 -6.798828,4.435547 -1.647605,3.632731 -0.60293,8.572636 4.822266,11.033203 l 0.285156,0.128906 c 0.69309,0.314347 1.156854,0.121844 1.521484,-0.173828 0.727039,-0.649994 2.084965,-1.993427 2.19336,-2.232422 0.184274,-0.40629 -0.124389,-0.807229 -0.458985,-0.958984 l -0.04687,-0.02149 c -0.178141,-0.05197 -0.369811,-0.137011 -0.537109,-0.21289 -2.987439,-1.354937 -3.363355,-3.832429 -2.59375,-5.529297 0.672049,-1.481772 2.083292,-2.051546 3.230469,-1.53125 1.003781,0.455259 1.111227,1.427482 1.013672,1.642578 -0.151756,0.334592 -0.341993,0.306154 -1.714844,0.0293 -0.343215,-0.06921 -0.587796,-0.03633 -0.707031,0.226562 -0.04336,0.0956 -0.294327,1.854679 -0.365235,2.773438 -0.03448,0.330152 0.01014,0.551179 0.392578,0.724609 1.264453,0.515861 3.152511,1.054578 4.449219,1.181641 1.626865,0.16154 2.491616,-0.539292 2.990234,-1.638672 0.357705,-0.788683 2.49154,-6.190709 -3.435546,-8.878906 -1.532559,-0.695084 -2.954671,-0.99815 -4.240235,-0.998047 z"
         id="path3-3"
         class="e2"
         inkscape:label="e2"
         inkscape:original-d="m 77.529427,32.751384 c 0.69309,0.314347 1.155533,0.120662 1.520163,-0.17501 0.727039,-0.649994 2.08551,-1.993338 2.193905,-2.232333 0.184274,-0.40629 -0.124463,-0.805658 -0.459059,-0.957413 l -0.04779,-0.02164 c -0.178141,-0.05197 -0.369338,-0.138683 -0.536636,-0.214562 -2.987439,-1.354937 -3.363055,-3.830554 -2.59345,-5.527422 0.672049,-1.481772 2.083291,-2.051974 3.230468,-1.531678 1.003781,0.455259 1.111009,1.425996 1.013454,1.641092 -0.151756,0.334592 -0.340731,0.306517 -1.713582,0.02966 -0.343215,-0.06921 -0.588606,-0.03643 -0.707841,0.226461 -0.04336,0.0956 -0.293834,1.85502 -0.364742,2.773779 -0.03448,0.330152 0.0091,0.551647 0.391534,0.725077 1.264453,0.515861 3.15226,1.055086 4.448968,1.182149 1.626865,0.16154 2.492859,-0.540691 2.991477,-1.640071 0.357705,-0.788683 2.490334,-6.18972 -3.436752,-8.877917 -5.449098,-2.471408 -9.488873,0.01874 -11.038923,3.436371 -1.647605,3.632731 -0.603181,8.572863 4.822015,11.03343 z" />
      <path
         style="font-weight:900;font-size:42.6667px;font-family:'FOT-Yuruka Std';-inkscape-font-specification:'FOT-Yuruka Std Heavy';white-space:pre;fill:#aaeeff;stroke-width:0.615065"
         d="m 64.413353,16.784159 c -5.983155,0.048 -8.600421,4.00717 -8.570313,7.759766 0.032,3.988774 3.054803,8.032169 9.011719,7.984375 l 0.314453,-0.0039 c 0.76102,-0.0061 1.100075,-0.375325 1.306641,-0.796875 0.386469,-0.895386 1.054839,-2.684847 1.052734,-2.947265 -0.0036,-0.446112 -0.450975,-0.678729 -0.818359,-0.675781 h -0.05273 c -0.183479,0.02773 -0.394436,0.02978 -0.578125,0.03125 -3.280243,0.02632 -4.660832,-2.062604 -4.675781,-3.925782 -0.01305,-1.626998 1.027497,-2.73794 2.287109,-2.748047 1.10216,-0.0088 1.607479,0.826324 1.609375,1.0625 0.0029,0.367388 -0.180912,0.422195 -1.542968,0.748047 -0.34051,0.08146 -0.549182,0.213314 -0.546875,0.501953 8.44e-4,0.104967 0.514086,1.808419 0.835937,2.671875 0.10749,0.314064 0.240289,0.495555 0.660156,0.492188 1.36416,-0.06343 3.303198,-0.367108 4.533203,-0.796875 1.54406,-0.53726 2.035076,-1.538964 2.025391,-2.746094 -0.0069,-0.865983 -0.343565,-6.663545 -6.851562,-6.611328 z"
         id="path2-6"
         class="e1"
         inkscape:label="e1"
         inkscape:original-d="m 65.170153,32.52493 c 0.76102,-0.0061 1.099218,-0.376235 1.305784,-0.797785 0.386469,-0.895386 1.054439,-2.685312 1.052334,-2.94773 -0.0036,-0.446112 -0.451585,-0.678711 -0.818969,-0.675763 l -0.05246,4.22e-4 c -0.183479,0.02773 -0.393418,0.02941 -0.577107,0.03088 -3.280243,0.02632 -4.661669,-2.062087 -4.676618,-3.925265 -0.01305,-1.626998 1.027782,-2.737582 2.287394,-2.747689 1.10216,-0.0088 1.607495,0.826899 1.609391,1.063075 0.0029,0.367388 -0.180327,0.421346 -1.542383,0.747198 -0.34051,0.08146 -0.549386,0.214379 -0.547079,0.503018 8.44e-4,0.104967 0.513127,1.806693 0.834978,2.670149 0.10749,0.314064 0.240183,0.4967 0.66005,0.493333 1.36416,-0.06343 3.303744,-0.367674 4.533749,-0.797441 1.54406,-0.53726 2.034656,-1.538454 2.024971,-2.745584 -0.0069,-0.865983 -0.342145,-6.663133 -6.850142,-6.610916 -5.983155,0.048 -8.60201,4.005559 -8.571902,7.758155 0.032,3.988774 3.056219,8.032268 9.013135,7.984474 z" />
      <path
         style="font-weight:900;font-size:42.6667px;font-family:'FOT-Yuruka Std';-inkscape-font-specification:'FOT-Yuruka Std Heavy';white-space:pre;fill:#aaeeff;stroke-width:0.615065"
         d="m 44.612571,17.098612 c -5.195777,0.05502 -7.379047,4.618623 -7.345703,7.767578 0.04474,4.224851 3.85989,7.542498 8.242188,7.496094 1.338304,-0.01417 2.750376,-0.343441 4.107422,-1.066406 1.325128,1.219446 3.167279,1.619966 3.429687,1.617187 0.341138,-0.0036 0.600582,-0.242806 0.832031,-0.691406 l 1.59375,-3.193359 c 0.05135,-0.105522 0.07672,-0.183846 0.07617,-0.236328 -0.0028,-0.262413 -0.292836,-0.416494 -0.55664,-0.544922 -0.844443,-0.43721 -1.145437,-1.562241 -1.16211,-3.136719 -0.01834,-1.731926 0.32588,-4.020262 0.667969,-6.412109 l -0.002,-0.13086 c -0.0033,-0.314894 -0.190216,-0.653961 -0.873047,-0.699219 l -4.544922,-0.345703 -0.130859,0.002 c -0.314895,0.0033 -0.549576,0.08418 -0.705078,0.269532 -1.028134,-0.435264 -2.31684,-0.709206 -3.628907,-0.695313 z m 1.257813,4.814453 c 0.761001,-0.0081 1.472516,0.351556 1.792969,0.873047 -0.04412,0.787795 -0.06192,1.497413 -0.05469,2.179688 0.0086,0.813481 0.06833,1.547075 0.154297,2.228515 -0.60077,0.268805 -1.177195,0.379489 -1.675781,0.384766 -1.705681,0.01806 -2.742252,-1.229706 -2.757813,-2.699219 -0.01417,-1.338307 0.887815,-2.949291 2.541016,-2.966797 z"
         id="path1-1"
         class="a"
         inkscape:label="a"
         inkscape:original-d="m 55.471925,29.029062 c 0.05135,-0.105522 0.07678,-0.184522 0.07623,-0.237004 -0.0028,-0.262413 -0.293099,-0.416805 -0.556903,-0.545233 -0.844443,-0.43721 -1.145049,-1.56253 -1.161722,-3.137008 -0.01834,-1.731926 0.32487,-4.01881 0.666959,-6.410657 l -0.0014,-0.131208 c -0.0033,-0.314894 -0.190633,-0.654087 -0.873464,-0.699345 l -4.543915,-0.345549 -0.131204,0.0014 c -0.314895,0.0033 -0.550234,0.08456 -0.705736,0.269915 -1.028134,-0.435264 -2.317016,-0.710302 -3.629083,-0.696409 -5.195777,0.05502 -7.378217,4.618381 -7.344873,7.767336 0.04474,4.224851 3.859051,7.543725 8.241349,7.497321 1.338304,-0.01417 2.752,-0.344071 4.109046,-1.067036 1.325128,1.219446 3.166466,1.619858 3.428874,1.617079 0.341138,-0.0036 0.601053,-0.242563 0.832502,-0.691163 z m -7.708983,-1.8342 c -0.60077,0.268805 -1.176969,0.379883 -1.675555,0.38516 -1.705681,0.01806 -2.742435,-1.230684 -2.757996,-2.700197 -0.01417,-1.338307 0.887328,-2.948751 2.540529,-2.966257 0.761001,-0.0081 1.473407,0.351818 1.79386,0.873309 -0.04412,0.787795 -0.06289,1.496587 -0.05566,2.178862 0.0086,0.813481 0.06885,1.547681 0.154822,2.229121 z" />
      <path
         style="font-weight:900;font-size:42.6667px;font-family:'FOT-Yuruka Std';-inkscape-font-specification:'FOT-Yuruka Std Heavy';white-space:pre;fill:#aaeeff;stroke-width:0.615065"
         d="m 33.221946,12.948222 c -0.05362,-0.002 -0.110227,0.002 -0.171875,0.01172 l -5.164062,0.828125 -0.05078,0.01172 c -0.359381,0.07634 -0.725366,0.367417 -0.800782,0.517578 -0.941576,1.756045 -2.554512,6.042778 -3.890625,10.109375 -0.03498,0.08792 -0.04827,0.145345 -0.09961,0.15625 -0.05133,0.0109 -0.08269,-0.01005 -0.150391,-0.07617 -2.873778,-3.172354 -6.093879,-6.458006 -7.667968,-7.679687 -0.129943,-0.106539 -0.687494,-0.203291 -1.046875,-0.126953 l -0.05078,0.0098 -4.9980466,1.357422 C 8.6533055,18.222305 8.5818892,18.64046 8.6418682,18.922831 l 5.2207028,19.65625 c 0.07634,0.359385 0.440841,0.682946 0.851563,0.595703 l 0.02539,-0.0039 4.841797,-1.458985 c 0.553841,-0.171274 0.798262,-0.785988 0.738282,-1.068359 l -0.0039,-0.02539 -3.472656,-10.664062 -0.03906,-0.179688 c -0.03272,-0.15402 -0.0279,-0.26253 0.02344,-0.273437 0.07701,-0.01636 0.168884,0.04386 0.298828,0.150391 0.629502,0.563819 3.322272,4.016457 5.107422,6.105468 0.219453,0.275324 0.55747,0.605962 1.019531,0.507813 l 2.623047,-0.664063 c 0.559289,-0.145627 0.765161,-0.565797 0.824219,-0.792968 0.756184,-2.628827 1.779726,-7.031585 2.105469,-7.771485 0.07542,-0.15016 0.13616,-0.243 0.1875,-0.253906 0.07701,-0.01636 0.12394,0.08008 0.162109,0.259766 l 0.02734,0.128906 1.148437,11.345703 0.0059,0.02539 c 0.05998,0.282367 0.435665,0.793505 1.005859,0.699218 l 5.292969,-0.722656 0.02539,-0.0059 c 0.38505,-0.08179 0.585825,-0.525787 0.535157,-0.890625 l -3.351563,-20.080078 -0.01172,-0.05078 c -0.05248,-0.247073 -0.236021,-0.52879 -0.611328,-0.542968 z"
         id="text1-2"
         class="m"
         inkscape:label="m"
         inkscape:original-d="m 36.662367,34.513465 c 0.38505,-0.08179 0.58563,-0.52682 0.534962,-0.891658 l -3.353057,-20.079675 -0.0109,-0.05133 c -0.05998,-0.28237 -0.290338,-0.609035 -0.783522,-0.531104 l -5.162866,0.828383 -0.05133,0.0109 c -0.359381,0.07634 -0.72648,0.368941 -0.801896,0.519102 -0.941576,1.756045 -2.553015,6.042095 -3.889128,10.108692 -0.03498,0.08792 -0.04975,0.144709 -0.101088,0.155614 -0.05133,0.0109 -0.08246,-0.0093 -0.15016,-0.07542 -2.873778,-3.172354 -6.093761,-6.458967 -7.66785,-7.680648 -0.129943,-0.106539 -0.686966,-0.202846 -1.046347,-0.126508 l -0.05133,0.0109 -4.9970187,1.356552 c -0.476844,0.154943 -0.549072,0.572715 -0.489093,0.855086 L 13.86326,38.578307 c 0.07634,0.359385 0.440499,0.684455 0.851221,0.597212 l 0.02567,-0.0055 4.841405,-1.45764 c 0.553841,-0.171274 0.798711,-0.786705 0.738731,-1.069076 l -0.0055,-0.02568 -3.472554,-10.664393 -0.03817,-0.17969 c -0.03272,-0.15402 -0.02886,-0.262152 0.02248,-0.273059 0.07701,-0.01636 0.170378,0.0443 0.300322,0.150835 0.629502,0.563819 3.321319,4.016278 5.106469,6.105289 0.219453,0.275324 0.557944,0.605848 1.020005,0.507699 l 2.622203,-0.664307 c 0.559289,-0.145627 0.765322,-0.56499 0.82438,-0.792161 0.756184,-2.628827 1.779477,-7.031401 2.10522,-7.771301 0.07542,-0.15016 0.136069,-0.243529 0.187409,-0.254435 0.07701,-0.01636 0.124491,0.08087 0.16266,0.260561 l 0.02726,0.12835 1.149073,11.345736 0.0055,0.02568 c 0.05998,0.282367 0.43664,0.792582 1.006834,0.698295 l 5.292809,-0.721848 z" />
    </g>
    <path
       style="font-weight:900;font-size:42.6667px;font-family:'FOT-Yuruka Std';-inkscape-font-specification:'FOT-Yuruka Std Heavy';white-space:pre;fill:#80e5ff;stroke-width:0.615065"
       d="m 107.24805,21.011719 c -0.22676,-0.0023 -0.45358,0.163491 -0.53321,0.404297 l -3.7832,13.130859 c -0.0714,0.306714 0.08,0.584688 0.38086,0.681641 l 5.05078,1.445312 0.0527,0.01172 c 0.2556,0.05949 0.53815,-0.117451 0.59765,-0.373047 l 2.64453,-9.166016 c 1.84204,0.536532 2.88444,1.964687 2.25977,4.648438 l -0.20117,0.86914 c -1.05896,4.549596 2.71375,6.855805 3.17383,6.962891 0.23004,0.05354 0.50346,0.03757 0.80664,-0.107422 0,0 2.95294,-1.226225 2.96484,-1.277344 0.20865,-0.08616 0.32172,-0.22164 0.35742,-0.375 0.0654,-0.281154 -0.13029,-0.59627 -0.2539,-0.759765 -0.82188,-1.215182 -0.88784,-2.441713 -0.55469,-3.873047 l 0.19726,-0.84375 c 1.1363,-4.88187 -2.06141,-8.968089 -7.25,-10.175781 -0.92014,-0.214173 -1.89112,-0.331831 -2.93554,-0.359375 l -2.82618,-0.820313 -0.0508,-0.01172 c -0.0319,-0.0074 -0.0653,-0.01139 -0.0976,-0.01172 z"
       id="path5"
       class="n"
       inkscape:label="n"
       inkscape:original-d="m 120.40806,32.39011 c 1.1363,-4.88187 -2.06216,-8.967435 -7.25075,-10.175127 -0.92014,-0.214173 -1.88964,-0.332056 -2.93406,-0.3596 l -2.82697,-0.819671 -0.0511,-0.0119 c -0.2556,-0.05949 -0.53917,0.117002 -0.63017,0.392208 l -3.78371,13.130327 c -0.0714,0.306714 0.0795,0.584343 0.38031,0.681296 l 5.05241,1.445442 0.0511,0.0119 c 0.2556,0.05949 0.53917,-0.117001 0.59867,-0.372597 l 2.64521,-9.165076 c 1.84204,0.536532 2.88381,1.964562 2.25914,4.648313 l -0.20227,0.869024 c -1.05896,4.549596 2.71525,6.85613 3.17532,6.963216 0.23004,0.05354 0.50349,0.03636 0.80667,-0.108631 0,0 2.95279,-1.225749 2.96469,-1.276868 0.20865,-0.08616 0.32103,-0.221664 0.35673,-0.375023 0.0654,-0.281154 -0.13066,-0.596239 -0.25427,-0.759734 -0.82188,-1.215182 -0.88643,-2.4427 -0.55328,-3.874034 z" />
    <path
       style="font-weight:900;font-size:42.6667px;font-family:'FOT-Yuruka Std';-inkscape-font-specification:'FOT-Yuruka Std Heavy';white-space:pre;fill:#80e5ff;stroke-width:0.615065"
       d="m 96.941406,19.087891 c -5.983354,0 -8.632812,3.936736 -8.632812,7.689453 0,3.988902 2.990155,8.05664 8.947265,8.05664 h 0.316407 c 0.76104,0 1.100606,-0.367229 1.310546,-0.787109 0.39365,-0.892257 1.076172,-2.677026 1.076172,-2.939453 0,-0.446127 -0.445093,-0.681641 -0.8125,-0.681641 h -0.05273 c -0.1837,0.02625 -0.394425,0.02539 -0.578125,0.02539 -3.280356,0 -4.644531,-2.097701 -4.644531,-3.960938 0,-1.627052 1.050895,-2.730468 2.310547,-2.730468 1.102202,0 1.599609,0.839987 1.599609,1.076171 0,0.367399 -0.184201,0.419462 -1.548828,0.734375 -0.341158,0.07873 -0.550781,0.211331 -0.550781,0.5 0,0.104971 0.499539,1.809771 0.814453,2.675782 0.104973,0.314914 0.23637,0.498047 0.65625,0.498047 1.364633,-0.05248 3.305656,-0.339882 4.539066,-0.759766 1.54833,-0.524856 2.04687,-1.523301 2.04687,-2.730469 0,-0.866011 -0.28867,-6.666015 -6.796874,-6.666015 z"
       id="path4"
       class="e3"
       inkscape:label="e3"
       inkscape:original-d="m 97.571645,34.834467 c 0.76104,0 1.10219,-0.367402 1.31213,-0.787282 0.39365,-0.892257 1.075957,-2.676766 1.075957,-2.939193 0,-0.446127 -0.44612,-0.682312 -0.813527,-0.682312 h -0.0525 c -0.1837,0.02625 -0.39364,0.02625 -0.57734,0.02625 -3.280356,0 -4.644975,-2.099422 -4.644975,-3.962659 0,-1.627052 1.049706,-2.729249 2.309358,-2.729249 1.102202,0 1.600817,0.839769 1.600817,1.075954 0,0.367399 -0.1837,0.419885 -1.548327,0.734798 -0.341158,0.07873 -0.551098,0.209942 -0.551098,0.498612 0,0.104971 0.498608,1.810752 0.813522,2.676763 0.104973,0.314914 0.23619,0.498613 0.65607,0.498613 1.364633,-0.05248 3.306588,-0.341156 4.539998,-0.76104 1.54833,-0.524856 2.04694,-1.522081 2.04694,-2.729249 0,-0.866011 -0.28867,-6.665664 -6.796878,-6.665664 -5.983354,0 -8.63387,3.936415 -8.63387,7.689132 0,3.988902 2.991674,8.056531 8.948784,8.056531 z" />
    <path
       style="font-weight:900;font-size:42.6667px;font-family:'FOT-Yuruka Std';-inkscape-font-specification:'FOT-Yuruka Std Heavy';white-space:pre;fill:#80e5ff;stroke-width:0.615065"
       d="m 79.220703,17.154297 c -3.285329,2.63e-4 -5.686683,1.977171 -6.800781,4.433594 -1.647605,3.632731 -0.602931,8.572636 4.822265,11.033203 l 0.28711,0.130859 c 0.69309,0.314347 1.154901,0.119891 1.519531,-0.175781 0.727039,-0.649994 2.086918,-1.993427 2.195313,-2.232422 0.184274,-0.40629 -0.124389,-0.805276 -0.458985,-0.957031 l -0.04883,-0.02148 c -0.178141,-0.05197 -0.369811,-0.138964 -0.537109,-0.214843 -2.987439,-1.354937 -3.361402,-3.830476 -2.591797,-5.527344 0.672049,-1.481772 2.083292,-2.051546 3.230469,-1.53125 1.003781,0.455259 1.109273,1.425529 1.011718,1.640625 -0.151756,0.334592 -0.340039,0.306154 -1.71289,0.0293 -0.343215,-0.06921 -0.587796,-0.03633 -0.707032,0.226562 -0.04336,0.0956 -0.294326,1.854679 -0.365234,2.773438 -0.03448,0.330152 0.0082,0.553132 0.390625,0.726562 1.264453,0.515861 3.152511,1.054578 4.449219,1.181641 1.626865,0.16154 2.493569,-0.541245 2.992187,-1.640625 0.357705,-0.788683 2.489586,-6.188756 -3.4375,-8.876953 -1.532558,-0.695084 -2.952717,-0.99815 -4.238281,-0.998047 z"
       id="path3"
       class="e2"
       inkscape:label="e2"
       inkscape:original-d="m 77.529427,32.751384 c 0.69309,0.314347 1.155533,0.120662 1.520163,-0.17501 0.727039,-0.649994 2.08551,-1.993338 2.193905,-2.232333 0.184274,-0.40629 -0.124463,-0.805658 -0.459059,-0.957413 l -0.04779,-0.02164 c -0.178141,-0.05197 -0.369338,-0.138683 -0.536636,-0.214562 -2.987439,-1.354937 -3.363055,-3.830554 -2.59345,-5.527422 0.672049,-1.481772 2.083291,-2.051974 3.230468,-1.531678 1.003781,0.455259 1.111009,1.425996 1.013454,1.641092 -0.151756,0.334592 -0.340731,0.306517 -1.713582,0.02966 -0.343215,-0.06921 -0.588606,-0.03643 -0.707841,0.226461 -0.04336,0.0956 -0.293834,1.85502 -0.364742,2.773779 -0.03448,0.330152 0.0091,0.551647 0.391534,0.725077 1.264453,0.515861 3.15226,1.055086 4.448968,1.182149 1.626865,0.16154 2.492859,-0.540691 2.991477,-1.640071 0.357705,-0.788683 2.490334,-6.18972 -3.436752,-8.877917 -5.449098,-2.471408 -9.488873,0.01874 -11.038923,3.436371 -1.647605,3.632731 -0.603181,8.572863 4.822015,11.03343 z" />
    <path
       style="font-weight:900;font-size:42.6667px;font-family:'FOT-Yuruka Std';-inkscape-font-specification:'FOT-Yuruka Std Heavy';white-space:pre;fill:#80e5ff;stroke-width:0.615065"
       d="m 64.414062,16.785156 c -5.983154,0.048 -8.602373,4.005217 -8.572265,7.757813 0.032,3.988774 3.056756,8.032169 9.013672,7.984375 l 0.314453,-0.002 c 0.76102,-0.0061 1.100074,-0.377279 1.30664,-0.798829 0.38647,-0.895385 1.052887,-2.684847 1.050782,-2.947265 -0.0036,-0.446112 -0.450976,-0.678729 -0.81836,-0.675781 h -0.05273 c -0.183479,0.02773 -0.392483,0.02978 -0.576172,0.03125 -3.280243,0.02632 -4.662785,-2.062604 -4.677734,-3.925782 -0.01305,-1.626998 1.02945,-2.735986 2.289062,-2.746093 1.10216,-0.0088 1.607479,0.826324 1.609375,1.0625 0.0029,0.367388 -0.180913,0.420241 -1.542969,0.746093 -0.34051,0.08146 -0.549181,0.215268 -0.546875,0.503907 8.44e-4,0.104967 0.512134,1.806466 0.833985,2.669921 0.10749,0.314064 0.240289,0.497508 0.660156,0.494141 1.36416,-0.06343 3.303198,-0.369061 4.533203,-0.798828 1.54406,-0.53726 2.035076,-1.537011 2.025391,-2.744141 -0.0069,-0.865983 -0.341612,-6.663545 -6.84961,-6.611328 z"
       id="path2"
       class="e1"
       inkscape:label="e1"
       inkscape:original-d="m 65.170153,32.52493 c 0.76102,-0.0061 1.099218,-0.376235 1.305784,-0.797785 0.386469,-0.895386 1.054439,-2.685312 1.052334,-2.94773 -0.0036,-0.446112 -0.451585,-0.678711 -0.818969,-0.675763 l -0.05246,4.22e-4 c -0.183479,0.02773 -0.393418,0.02941 -0.577107,0.03088 -3.280243,0.02632 -4.661669,-2.062087 -4.676618,-3.925265 -0.01305,-1.626998 1.027782,-2.737582 2.287394,-2.747689 1.10216,-0.0088 1.607495,0.826899 1.609391,1.063075 0.0029,0.367388 -0.180327,0.421346 -1.542383,0.747198 -0.34051,0.08146 -0.549386,0.214379 -0.547079,0.503018 8.44e-4,0.104967 0.513127,1.806693 0.834978,2.670149 0.10749,0.314064 0.240183,0.4967 0.66005,0.493333 1.36416,-0.06343 3.303744,-0.367674 4.533749,-0.797441 1.54406,-0.53726 2.034656,-1.538454 2.024971,-2.745584 -0.0069,-0.865983 -0.342145,-6.663133 -6.850142,-6.610916 -5.983155,0.048 -8.60201,4.005559 -8.571902,7.758155 0.032,3.988774 3.056219,8.032268 9.013135,7.984474 z" />
    <path
       style="font-weight:900;font-size:42.6667px;font-family:'FOT-Yuruka Std';-inkscape-font-specification:'FOT-Yuruka Std Heavy';white-space:pre;fill:#80e5ff;stroke-width:0.615065"
       d="m 44.611328,17.097656 c -5.195777,0.05502 -7.377094,4.618623 -7.34375,7.767578 0.04474,4.224851 3.857937,7.544451 8.240234,7.498047 1.338304,-0.01417 2.752329,-0.345394 4.109375,-1.068359 1.325128,1.219446 3.16728,1.619966 3.429688,1.617187 0.341138,-0.0036 0.600582,-0.242806 0.832031,-0.691406 l 1.59375,-3.191406 c 0.05135,-0.105522 0.07672,-0.183846 0.07617,-0.236328 -0.0028,-0.262413 -0.292836,-0.418447 -0.556641,-0.546875 -0.844442,-0.43721 -1.145436,-1.562241 -1.162109,-3.136719 -0.01834,-1.731926 0.323927,-4.018309 0.666016,-6.410156 l -0.002,-0.13086 c -0.0033,-0.314894 -0.190216,-0.65396 -0.873047,-0.699218 l -4.542969,-0.345704 -0.130859,0.002 c -0.314895,0.0033 -0.55153,0.08418 -0.707032,0.269531 -1.028134,-0.435264 -2.316839,-0.711159 -3.628906,-0.697266 z m 1.257813,4.816406 c 0.761001,-0.0081 1.474469,0.351556 1.794921,0.873047 -0.04412,0.787795 -0.06387,1.49546 -0.05664,2.177735 0.0086,0.813481 0.07028,1.549029 0.15625,2.230468 -0.60077,0.268805 -1.177195,0.379489 -1.675781,0.384766 -1.705681,0.01806 -2.742252,-1.231659 -2.757813,-2.701172 -0.01417,-1.338307 0.885862,-2.947338 2.539063,-2.964844 z"
       id="path1"
       class="a"
       inkscape:label="a"
       inkscape:original-d="m 55.471925,29.029062 c 0.05135,-0.105522 0.07678,-0.184522 0.07623,-0.237004 -0.0028,-0.262413 -0.293099,-0.416805 -0.556903,-0.545233 -0.844443,-0.43721 -1.145049,-1.56253 -1.161722,-3.137008 -0.01834,-1.731926 0.32487,-4.01881 0.666959,-6.410657 l -0.0014,-0.131208 c -0.0033,-0.314894 -0.190633,-0.654087 -0.873464,-0.699345 l -4.543915,-0.345549 -0.131204,0.0014 c -0.314895,0.0033 -0.550234,0.08456 -0.705736,0.269915 -1.028134,-0.435264 -2.317016,-0.710302 -3.629083,-0.696409 -5.195777,0.05502 -7.378217,4.618381 -7.344873,7.767336 0.04474,4.224851 3.859051,7.543725 8.241349,7.497321 1.338304,-0.01417 2.752,-0.344071 4.109046,-1.067036 1.325128,1.219446 3.166466,1.619858 3.428874,1.617079 0.341138,-0.0036 0.601053,-0.242563 0.832502,-0.691163 z m -7.708983,-1.8342 c -0.60077,0.268805 -1.176969,0.379883 -1.675555,0.38516 -1.705681,0.01806 -2.742435,-1.230684 -2.757996,-2.700197 -0.01417,-1.338307 0.887328,-2.948751 2.540529,-2.966257 0.761001,-0.0081 1.473407,0.351818 1.79386,0.873309 -0.04412,0.787795 -0.06289,1.496587 -0.05566,2.178862 0.0086,0.813481 0.06885,1.547681 0.154822,2.229121 z" />
    <path
       style="font-weight:900;font-size:42.6667px;font-family:'FOT-Yuruka Std';-inkscape-font-specification:'FOT-Yuruka Std Heavy';white-space:pre;fill:#80e5ff;stroke-width:0.615065"
       d="m 33.222656,12.949219 c -0.05362,-0.002 -0.110227,2.4e-5 -0.171875,0.0098 l -5.164062,0.828125 -0.05078,0.01172 c -0.359381,0.07634 -0.727318,0.36937 -0.802734,0.519531 -0.941576,1.756045 -2.552559,6.042778 -3.888672,10.109375 -0.03498,0.08792 -0.05022,0.143392 -0.101562,0.154297 -0.05133,0.0109 -0.08269,-0.0081 -0.150391,-0.07422 -2.873778,-3.172353 -6.09388,-6.459959 -7.667969,-7.68164 -0.129943,-0.106539 -0.685541,-0.203291 -1.044921,-0.126953 l -0.05274,0.01172 -4.9960936,1.355469 c -0.476844,0.154943 -0.5482603,0.573098 -0.4882813,0.855469 l 5.2207029,19.65625 c 0.07634,0.359385 0.440841,0.684899 0.851563,0.597656 l 0.02539,-0.0059 4.841797,-1.457031 c 0.553841,-0.171274 0.798262,-0.787942 0.738281,-1.070313 l -0.0059,-0.02539 -3.472656,-10.664062 -0.03711,-0.179688 c -0.03272,-0.15402 -0.02986,-0.26253 0.02148,-0.273437 0.07701,-0.01636 0.170837,0.04386 0.300781,0.150391 0.629502,0.563819 3.320319,4.016457 5.105469,6.105468 0.219453,0.275324 0.559423,0.605962 1.021484,0.507813 L 25.875,31.599609 c 0.559289,-0.145627 0.765161,-0.563844 0.824219,-0.791015 0.756184,-2.628827 1.779726,-7.031585 2.105468,-7.771485 0.07542,-0.15016 0.136161,-0.244953 0.1875,-0.255859 0.07701,-0.01636 0.123941,0.08203 0.16211,0.261719 l 0.02734,0.128906 1.15039,11.345703 0.0059,0.02539 c 0.05998,0.282367 0.435665,0.791552 1.005859,0.697265 l 5.292969,-0.720703 0.02539,-0.0059 c 0.38505,-0.08179 0.585825,-0.52774 0.535157,-0.892578 l -3.353516,-20.078125 -0.0098,-0.05274 c -0.05248,-0.247073 -0.236021,-0.526837 -0.611328,-0.541015 z"
       id="text1"
       class="m"
       inkscape:label="m"
       inkscape:original-d="m 36.662367,34.513465 c 0.38505,-0.08179 0.58563,-0.52682 0.534962,-0.891658 l -3.353057,-20.079675 -0.0109,-0.05133 c -0.05998,-0.28237 -0.290338,-0.609035 -0.783522,-0.531104 l -5.162866,0.828383 -0.05133,0.0109 c -0.359381,0.07634 -0.72648,0.368941 -0.801896,0.519102 -0.941576,1.756045 -2.553015,6.042095 -3.889128,10.108692 -0.03498,0.08792 -0.04975,0.144709 -0.101088,0.155614 -0.05133,0.0109 -0.08246,-0.0093 -0.15016,-0.07542 -2.873778,-3.172354 -6.093761,-6.458967 -7.66785,-7.680648 -0.129943,-0.106539 -0.686966,-0.202846 -1.046347,-0.126508 l -0.05133,0.0109 -4.9970187,1.356552 c -0.476844,0.154943 -0.549072,0.572715 -0.489093,0.855086 L 13.86326,38.578307 c 0.07634,0.359385 0.440499,0.684455 0.851221,0.597212 l 0.02567,-0.0055 4.841405,-1.45764 c 0.553841,-0.171274 0.798711,-0.786705 0.738731,-1.069076 l -0.0055,-0.02568 -3.472554,-10.664393 -0.03817,-0.17969 c -0.03272,-0.15402 -0.02886,-0.262152 0.02248,-0.273059 0.07701,-0.01636 0.170378,0.0443 0.300322,0.150835 0.629502,0.563819 3.321319,4.016278 5.106469,6.105289 0.219453,0.275324 0.557944,0.605848 1.020005,0.507699 l 2.622203,-0.664307 c 0.559289,-0.145627 0.765322,-0.56499 0.82438,-0.792161 0.756184,-2.628827 1.779477,-7.031401 2.10522,-7.771301 0.07542,-0.15016 0.136069,-0.243529 0.187409,-0.254435 0.07701,-0.01636 0.124491,0.08087 0.16266,0.260561 l 0.02726,0.12835 1.149073,11.345736 0.0055,0.02568 c 0.05998,0.282367 0.43664,0.792582 1.006834,0.698295 l 5.292809,-0.721848 z" />
  </g>
</svg>
